<svg xmlns="http://www.w3.org/2000/svg" viewBox="0 0 6830 910" role="img" aria-label="Frontdesk.ai"><title>Frontdesk.ai</title><g fill="#111111"><circle cx="585" cy="65" r="65"/><circle cx="715" cy="65" r="65"/><circle cx="455" cy="195" r="65"/><circle cx="455" cy="325" r="65"/><circle cx="195" cy="455" r="65"/><circle cx="325" cy="455" r="65"/><circle cx="455" cy="455" r="65"/><circle cx="585" cy="455" r="65"/><circle cx="715" cy="455" r="65"/><circle cx="65" cy="585" r="65"/><circle cx="455" cy="585" r="65"/><circle cx="65" cy="715" r="65"/><circle cx="455" cy="715" r="65"/><circle cx="195" cy="845" r="65"/><circle cx="325" cy="845" r="65"/><circle cx="455" cy="845" r="65"/><circle cx="1180" cy="755" r="50"/><circle cx="1180" cy="655" r="50"/><circle cx="1180" cy="555" r="50"/><circle cx="1080" cy="455" r="50"/><circle cx="1180" cy="455" r="50"/><circle cx="1280" cy="455" r="50"/><circle cx="1380" cy="455" r="50"/><circle cx="1180" cy="355" r="50"/><circle cx="1280" cy="255" r="50"/><circle cx="1380" cy="255" r="50"/><circle cx="1580" cy="755" r="50"/><circle cx="1580" cy="655" r="50"/><circle cx="1580" cy="555" r="50"/><circle cx="1580" cy="455" r="50"/><circle cx="1680" cy="455" r="50"/><circle cx="1580" cy="355" r="50"/><circle cx="1780" cy="355" r="50"/><circle cx="2080" cy="755" r="50"/><circle cx="2180" cy="755" r="50"/><circle cx="2280" cy="755" r="50"/><circle cx="1980" cy="655" r="50"/><circle cx="2380" cy="655" r="50"/><circle cx="1980" cy="555" r="50"/><circle cx="2380" cy="555" r="50"/><circle cx="1980" cy="455" r="50"/><circle cx="2380" cy="455" r="50"/><circle cx="2080" cy="355" r="50"/><circle cx="2180" cy="355" r="50"/><circle cx="2280" cy="355" r="50"/><circle cx="2580" cy="755" r="50"/><circle cx="2980" cy="755" r="50"/><circle cx="2580" cy="655" r="50"/><circle cx="2980" cy="655" r="50"/><circle cx="2580" cy="555" r="50"/><circle cx="2980" cy="555" r="50"/><circle cx="2580" cy="455" r="50"/><circle cx="2680" cy="455" r="50"/><circle cx="2980" cy="455" r="50"/><circle cx="2580" cy="355" r="50"/><circle cx="2780" cy="355" r="50"/><circle cx="2880" cy="355" r="50"/><circle cx="3380" cy="755" r="50"/><circle cx="3480" cy="755" r="50"/><circle cx="3280" cy="655" r="50"/><circle cx="3280" cy="555" r="50"/><circle cx="3280" cy="455" r="50"/><circle cx="3180" cy="355" r="50"/><circle cx="3280" cy="355" r="50"/><circle cx="3380" cy="355" r="50"/><circle cx="3480" cy="355" r="50"/><circle cx="3280" cy="255" r="50"/><circle cx="3780" cy="755" r="50"/><circle cx="3880" cy="755" r="50"/><circle cx="4080" cy="755" r="50"/><circle cx="3680" cy="655" r="50"/><circle cx="3980" cy="655" r="50"/><circle cx="4080" cy="655" r="50"/><circle cx="3680" cy="555" r="50"/><circle cx="4080" cy="555" r="50"/><circle cx="3680" cy="455" r="50"/><circle cx="4080" cy="455" r="50"/><circle cx="3780" cy="355" r="50"/><circle cx="3880" cy="355" r="50"/><circle cx="3980" cy="355" r="50"/><circle cx="4080" cy="355" r="50"/><circle cx="4080" cy="255" r="50"/><circle cx="4380" cy="755" r="50"/><circle cx="4480" cy="755" r="50"/><circle cx="4580" cy="755" r="50"/><circle cx="4680" cy="755" r="50"/><circle cx="4280" cy="655" r="50"/><circle cx="4280" cy="555" r="50"/><circle cx="4380" cy="555" r="50"/><circle cx="4480" cy="555" r="50"/><circle cx="4580" cy="555" r="50"/><circle cx="4680" cy="555" r="50"/><circle cx="4280" cy="455" r="50"/><circle cx="4680" cy="455" r="50"/><circle cx="4380" cy="355" r="50"/><circle cx="4480" cy="355" r="50"/><circle cx="4580" cy="355" r="50"/><circle cx="4880" cy="755" r="50"/><circle cx="4980" cy="755" r="50"/><circle cx="5080" cy="755" r="50"/><circle cx="5180" cy="655" r="50"/><circle cx="4880" cy="555" r="50"/><circle cx="4980" cy="555" r="50"/><circle cx="5080" cy="555" r="50"/><circle cx="5180" cy="555" r="50"/><circle cx="4880" cy="455" r="50"/><circle cx="4980" cy="355" r="50"/><circle cx="5080" cy="355" r="50"/><circle cx="5180" cy="355" r="50"/><circle cx="5380" cy="755" r="50"/><circle cx="5680" cy="755" r="50"/><circle cx="5380" cy="655" r="50"/><circle cx="5580" cy="655" r="50"/><circle cx="5380" cy="555" r="50"/><circle cx="5480" cy="555" r="50"/><circle cx="5380" cy="455" r="50"/><circle cx="5580" cy="455" r="50"/><circle cx="5380" cy="355" r="50"/><circle cx="5680" cy="355" r="50"/><circle cx="5380" cy="255" r="50"/><circle cx="5880" cy="755" r="50"/><circle cx="5980" cy="755" r="50"/><circle cx="5880" cy="655" r="50"/><circle cx="5980" cy="655" r="50"/><circle cx="6280" cy="755" r="50"/><circle cx="6380" cy="755" r="50"/><circle cx="6580" cy="755" r="50"/><circle cx="6180" cy="655" r="50"/><circle cx="6580" cy="655" r="50"/><circle cx="6280" cy="555" r="50"/><circle cx="6380" cy="555" r="50"/><circle cx="6480" cy="555" r="50"/><circle cx="6580" cy="555" r="50"/><circle cx="6580" cy="455" r="50"/><circle cx="6280" cy="355" r="50"/><circle cx="6380" cy="355" r="50"/><circle cx="6480" cy="355" r="50"/><circle cx="6780" cy="755" r="50"/><circle cx="6780" cy="655" r="50"/><circle cx="6780" cy="555" r="50"/><circle cx="6780" cy="455" r="50"/><circle cx="6780" cy="355" r="50"/><circle cx="6780" cy="155" r="50"/></g></svg>
